<svg width="34" height="34" viewBox="0 0 34 34" fill="none" xmlns="http://www.w3.org/2000/svg">
<rect x="1" y="1" width="32" height="32" rx="16" fill="white"/>
<rect x="1" y="1" width="32" height="32" rx="16" stroke="#EBEEF2" stroke-width="2" stroke-dasharray="4 4"/>
<path d="M17.6667 13.6666H16.3333V16.3333H13.6667V17.6666H16.3333V20.3333H17.6667V17.6666H20.3333V16.3333H17.6667V13.6666ZM17 10.3333C13.32 10.3333 10.3333 13.32 10.3333 17C10.3333 20.68 13.32 23.6666 17 23.6666C20.68 23.6666 23.6667 20.68 23.6667 17C23.6667 13.32 20.68 10.3333 17 10.3333ZM17 22.3333C14.06 22.3333 11.6667 19.94 11.6667 17C11.6667 14.06 14.06 11.6666 17 11.6666C19.94 11.6666 22.3333 14.06 22.3333 17C22.3333 19.94 19.94 22.3333 17 22.3333Z" fill="#DADEE6"/>
</svg>
