<svg width="10" height="11" viewBox="0 0 10 11" fill="none" xmlns="http://www.w3.org/2000/svg">
<path d="M5.00044 5.82353C6.19235 5.82353 7.27226 6.22471 8.06453 6.78571C8.81735 7.31953 9.45499 8.11282 9.45499 8.96629C9.45499 9.43476 9.25835 9.823 8.94844 10.1116C8.65699 10.384 8.27644 10.5606 7.88444 10.681C7.10108 10.9224 6.06953 11 5.00044 11C3.93135 11 2.89981 10.9224 2.11644 10.681C1.72444 10.5606 1.3439 10.384 1.05181 10.1116C0.743171 9.82365 0.545898 9.43541 0.545898 8.96694C0.545898 8.11347 1.18353 7.32018 1.93635 6.78635C2.72863 6.22471 3.80853 5.82353 5.00044 5.82353ZM5.00044 0C5.67554 0 6.32299 0.272688 6.80035 0.758076C7.27772 1.24346 7.5459 1.90179 7.5459 2.58824C7.5459 3.27468 7.27772 3.93301 6.80035 4.41839C6.32299 4.90378 5.67554 5.17647 5.00044 5.17647C4.32535 5.17647 3.6779 4.90378 3.20054 4.41839C2.72317 3.93301 2.45499 3.27468 2.45499 2.58824C2.45499 1.90179 2.72317 1.24346 3.20054 0.758076C3.6779 0.272688 4.32535 0 5.00044 0Z" fill="#4094F7"/>
</svg>
