<svg width="24" height="24" viewBox="0 0 24 24" fill="none" xmlns="http://www.w3.org/2000/svg">
<path d="M18.5 21.5H20C20.3978 21.5 20.7794 21.342 21.0607 21.0607C21.342 20.7794 21.5 20.3978 21.5 20V18.5M18.5 2.5H20C20.3978 2.5 20.7794 2.65804 21.0607 2.93934C21.342 3.22064 21.5 3.60218 21.5 4V5.5M5.5 21.5H4C3.60218 21.5 3.22064 21.342 2.93934 21.0607C2.65804 20.7794 2.5 20.3978 2.5 20V18.5M5.5 2.5H4C3.60218 2.5 3.22064 2.65804 2.93934 2.93934C2.65804 3.22064 2.5 3.60218 2.5 4V5.5" stroke="#84919A" stroke-linecap="round"/>
<path d="M12 12.8235C13.1919 12.8235 14.2718 13.2247 15.0641 13.7857C15.8169 14.3195 16.4545 15.1128 16.4545 15.9663C16.4545 16.4348 16.2579 16.823 15.948 17.1116C15.6565 17.384 15.276 17.5606 14.884 17.681C14.1006 17.9224 13.0691 18 12 18C10.9309 18 9.89936 17.9224 9.116 17.681C8.724 17.5606 8.34346 17.384 8.05136 17.1116C7.74273 16.8236 7.54546 16.4354 7.54546 15.9669C7.54546 15.1135 8.18309 14.3202 8.93591 13.7864C9.72818 13.2247 10.8081 12.8235 12 12.8235ZM16.4545 13.4706C17.1189 13.4706 17.7222 13.6938 18.1683 14.0096C18.5755 14.2988 19 14.7796 19 15.3658C19 15.7004 18.8568 15.9779 18.6436 16.1766C18.4489 16.3584 18.2084 16.4652 17.9888 16.5325C17.6897 16.6244 17.3365 16.6716 16.97 16.6923C17.0476 16.4691 17.0909 16.2264 17.0909 15.9663C17.0909 14.9731 16.4806 14.1293 15.7978 13.5437C16.0135 13.4952 16.2337 13.4706 16.4545 13.4706ZM7.54546 13.4706C7.77264 13.4706 7.99282 13.4965 8.20218 13.5437C7.52 14.1293 6.90909 14.9731 6.90909 15.9663C6.90909 16.2264 6.95236 16.4691 7.03 16.6923C6.66346 16.6716 6.31091 16.6244 6.01118 16.5325C5.79164 16.4652 5.55109 16.3584 5.35573 16.1766C5.24365 16.0747 5.15402 15.9498 5.09272 15.8102C5.03141 15.6706 4.99982 15.5194 5 15.3665C5 14.7809 5.42382 14.2995 5.83173 14.0102C6.3362 13.6584 6.9337 13.4702 7.54546 13.4706ZM16.1364 9.58824C16.5583 9.58824 16.963 9.75867 17.2613 10.062C17.5597 10.3654 17.7273 10.7769 17.7273 11.2059C17.7273 11.6349 17.5597 12.0464 17.2613 12.3497C16.963 12.6531 16.5583 12.8235 16.1364 12.8235C15.7144 12.8235 15.3098 12.6531 15.0114 12.3497C14.7131 12.0464 14.5455 11.6349 14.5455 11.2059C14.5455 10.7769 14.7131 10.3654 15.0114 10.062C15.3098 9.75867 15.7144 9.58824 16.1364 9.58824ZM7.86364 9.58824C8.28557 9.58824 8.69023 9.75867 8.98858 10.062C9.28693 10.3654 9.45455 10.7769 9.45455 11.2059C9.45455 11.6349 9.28693 12.0464 8.98858 12.3497C8.69023 12.6531 8.28557 12.8235 7.86364 12.8235C7.4417 12.8235 7.03705 12.6531 6.73869 12.3497C6.44034 12.0464 6.27273 11.6349 6.27273 11.2059C6.27273 10.7769 6.44034 10.3654 6.73869 10.062C7.03705 9.75867 7.4417 9.58824 7.86364 9.58824ZM12 7C12.6751 7 13.3225 7.27269 13.7999 7.75808C14.2773 8.24346 14.5455 8.90179 14.5455 9.58824C14.5455 10.2747 14.2773 10.933 13.7999 11.4184C13.3225 11.9038 12.6751 12.1765 12 12.1765C11.3249 12.1765 10.6775 11.9038 10.2001 11.4184C9.72273 10.933 9.45455 10.2747 9.45455 9.58824C9.45455 8.90179 9.72273 8.24346 10.2001 7.75808C10.6775 7.27269 11.3249 7 12 7Z" fill="#84919A"/>
</svg>
